<?xml version="1.0" encoding="UTF-8" standalone="no"?>
<!DOCTYPE svg PUBLIC "-//W3C//DTD SVG 1.1//EN"
 "http://www.w3.org/Graphics/SVG/1.1/DTD/svg11.dtd">
<!-- Generated by graphviz version 2.38.0 (20140413.2041)
 -->
<!-- Title: G Pages: 1 -->
<svg width="1609pt" height="960pt"
 viewBox="0.00 0.00 1609.00 960.00" xmlns="http://www.w3.org/2000/svg" xmlns:xlink="http://www.w3.org/1999/xlink">
<g id="graph0" class="graph" transform="scale(1 1) rotate(0) translate(4 956)">
<title>G</title>
<polygon fill="white" stroke="none" points="-4,4 -4,-956 1605,-956 1605,4 -4,4"/>
<g id="clust1" class="cluster"><title>cluster_family_0</title>
</g>
<g id="clust2" class="cluster"><title>cluster_family_0_0</title>
</g>
<g id="clust3" class="cluster"><title>cluster_family_0_0_0</title>
</g>
<g id="clust10" class="cluster"><title>cluster_family_1</title>
</g>
<g id="clust11" class="cluster"><title>cluster_family_1_0</title>
</g>
<g id="clust16" class="cluster"><title>cluster_family_2</title>
</g>
<g id="clust17" class="cluster"><title>cluster_family_2_0</title>
</g>
<g id="clust18" class="cluster"><title>cluster_family_2_0_0</title>
</g>
<g id="clust25" class="cluster"><title>cluster_family_3</title>
</g>
<g id="clust28" class="cluster"><title>cluster_family_4</title>
</g>
<g id="clust29" class="cluster"><title>cluster_family_4_0</title>
</g>
<g id="clust30" class="cluster"><title>cluster_family_4_0_0</title>
</g>
<g id="clust37" class="cluster"><title>cluster_family_5</title>
</g>
<g id="clust40" class="cluster"><title>cluster_family_6</title>
</g>
<g id="clust41" class="cluster"><title>cluster_family_6_0</title>
</g>
<g id="clust46" class="cluster"><title>cluster_family_7</title>
</g>
<g id="clust49" class="cluster"><title>cluster_family_8</title>
</g>
<!-- union_0_0_0 -->
<g id="node1" class="node"><title>union_0_0_0</title>
<ellipse fill="#3498db" stroke="white" cx="782.5" cy="-209" rx="3.5" ry="3.5"/>
</g>
<!-- siblings_0_0_0 -->
<g id="node4" class="node"><title>siblings_0_0_0</title>
<polygon fill="#3498db" stroke="#cccccc" stroke-width="0" points="822,-209.5 815,-209.5 815,-208.5 822,-208.5 822,-209.5"/>
</g>
<!-- union_0_0_0&#45;&gt;siblings_0_0_0 -->
<g id="edge3" class="edge"><title>union_0_0_0&#45;&gt;siblings_0_0_0</title>
<path fill="none" stroke="#3498db" d="M786.083,-209C792.913,-209 807.732,-209 814.715,-209"/>
</g>
<!-- Sylvia Golinsky -->
<g id="node2" class="node"><title>Sylvia Golinsky</title>
<polygon fill="white" stroke="#cccccc" points="750,-230 570,-230 570,-188 750,-188 750,-230"/>
<text text-anchor="start" x="613.054" y="-211.4" font-family="Helvetica, Arial, sans-serif" font-size="14.00">Sylvia Golinsky</text>
<text text-anchor="start" x="604.94" y="-197" font-family="Helvetica, Arial, sans-serif" font-size="10.00" fill="#aaaaaa">Sylvia Golinsky Philipson</text>
</g>
<!-- Sylvia Golinsky&#45;&gt;union_0_0_0 -->
<g id="edge1" class="edge"><title>Sylvia Golinsky&#45;&gt;union_0_0_0</title>
<path fill="none" stroke="#3498db" d="M750.315,-209C762.938,-209 773.417,-209 778.733,-209"/>
</g>
<!-- Louis Philipson -->
<g id="node3" class="node"><title>Louis Philipson</title>
<polygon fill="white" stroke="#cccccc" points="750,-170 570,-170 570,-128 750,-128 750,-170"/>
<text text-anchor="start" x="612.934" y="-151.4" font-family="Helvetica, Arial, sans-serif" font-size="14.00">Louis Philipson</text>
<text text-anchor="start" x="626.381" y="-137" font-family="Helvetica, Arial, sans-serif" font-size="10.00" fill="#aaaaaa">Louis Philipson</text>
</g>
<!-- Louis Philipson&#45;&gt;union_0_0_0 -->
<g id="edge2" class="edge"><title>Louis Philipson&#45;&gt;union_0_0_0</title>
<path fill="none" stroke="#3498db" d="M750.038,-149C768.794,-149 783,-149 783,-149 783,-149 783,-192.51 783,-205.426"/>
</g>
<!-- Herb Philipson -->
<g id="node5" class="node"><title>Herb Philipson</title>
<polygon fill="white" stroke="#cccccc" points="1031,-230 851,-230 851,-188 1031,-188 1031,-230"/>
<text text-anchor="start" x="895.995" y="-211.4" font-family="Helvetica, Arial, sans-serif" font-size="14.00">Herb Philipson</text>
<text text-anchor="start" x="908.996" y="-197" font-family="Helvetica, Arial, sans-serif" font-size="10.00" fill="#aaaaaa">Herb Philipson</text>
</g>
<!-- siblings_0_0_0&#45;&gt;Herb Philipson -->
<g id="edge4" class="edge"><title>siblings_0_0_0&#45;&gt;Herb Philipson</title>
<path fill="none" stroke="#3498db" d="M822.034,-209C822.034,-209 840.811,-209 840.811,-209"/>
<polygon fill="#3498db" stroke="#3498db" points="848.81,-199 848.811,-219 844.811,-219 844.81,-199 848.81,-199"/>
<polyline fill="none" stroke="#3498db" points="850.811,-209 840.811,-209 "/>
</g>
<!-- union_2_0_0 -->
<g id="node22" class="node"><title>union_2_0_0</title>
<ellipse fill="#e74c3c" stroke="white" cx="1063.5" cy="-413" rx="3.5" ry="3.5"/>
</g>
<!-- Herb Philipson&#45;&gt;union_2_0_0 -->
<g id="edge21" class="edge"><title>Herb Philipson&#45;&gt;union_2_0_0</title>
<path fill="none" stroke="#e74c3c" d="M1031.04,-209C1049.79,-209 1064,-209 1064,-209 1064,-209 1064,-382.37 1064,-409.459"/>
</g>
<!-- union_0_0 -->
<g id="node6" class="node"><title>union_0_0</title>
<ellipse fill="#2ecc71" stroke="white" cx="501.5" cy="-209" rx="3.5" ry="3.5"/>
</g>
<!-- siblings_0_0 -->
<g id="node9" class="node"><title>siblings_0_0</title>
<polygon fill="#2ecc71" stroke="#cccccc" stroke-width="0" points="541,-209.5 534,-209.5 534,-208.5 541,-208.5 541,-209.5"/>
</g>
<!-- union_0_0&#45;&gt;siblings_0_0 -->
<g id="edge7" class="edge"><title>union_0_0&#45;&gt;siblings_0_0</title>
<path fill="none" stroke="#2ecc71" d="M505.083,-209C511.913,-209 526.732,-209 533.715,-209"/>
</g>
<!-- Bailey Serling -->
<g id="node7" class="node"><title>Bailey Serling</title>
<polygon fill="white" stroke="#cccccc" points="469,-230 289,-230 289,-188 469,-188 469,-230"/>
<text text-anchor="start" x="336.218" y="-211.4" font-family="Helvetica, Arial, sans-serif" font-size="14.00">Bailey Serling</text>
<text text-anchor="start" x="327.885" y="-197" font-family="Helvetica, Arial, sans-serif" font-size="10.00" fill="#aaaaaa">Bailey Serling Golinsky</text>
</g>
<!-- Bailey Serling&#45;&gt;union_0_0 -->
<g id="edge5" class="edge"><title>Bailey Serling&#45;&gt;union_0_0</title>
<path fill="none" stroke="#2ecc71" d="M469.315,-209C481.938,-209 492.417,-209 497.733,-209"/>
</g>
<!-- Joseph Golinsky -->
<g id="node8" class="node"><title>Joseph Golinsky</title>
<polygon fill="white" stroke="#cccccc" points="469,-170 289,-170 289,-128 469,-128 469,-170"/>
<text text-anchor="start" x="327.655" y="-151.4" font-family="Helvetica, Arial, sans-serif" font-size="14.00">Joseph Golinsky</text>
<text text-anchor="start" x="342.325" y="-137" font-family="Helvetica, Arial, sans-serif" font-size="10.00" fill="#aaaaaa">Joseph Golinsky</text>
</g>
<!-- Joseph Golinsky&#45;&gt;union_0_0 -->
<g id="edge6" class="edge"><title>Joseph Golinsky&#45;&gt;union_0_0</title>
<path fill="none" stroke="#2ecc71" d="M469.038,-142C487.794,-142 502,-142 502,-142 502,-142 502,-191.481 502,-205.398"/>
</g>
<!-- siblings_0_0&#45;&gt;Sylvia Golinsky -->
<g id="edge8" class="edge"><title>siblings_0_0&#45;&gt;Sylvia Golinsky</title>
<path fill="none" stroke="#2ecc71" d="M541.034,-209C541.034,-209 559.811,-209 559.811,-209"/>
<polygon fill="#2ecc71" stroke="#2ecc71" points="567.81,-199 567.811,-219 563.811,-219 563.81,-199 567.81,-199"/>
<polyline fill="none" stroke="#2ecc71" points="569.811,-209 559.811,-209 "/>
</g>
<!-- union_0 -->
<g id="node10" class="node"><title>union_0</title>
<ellipse fill="#1abc9c" stroke="white" cx="220.5" cy="-209" rx="3.5" ry="3.5"/>
</g>
<!-- siblings_0 -->
<g id="node13" class="node"><title>siblings_0</title>
<polygon fill="#1abc9c" stroke="#cccccc" stroke-width="0" points="260,-209.5 253,-209.5 253,-208.5 260,-208.5 260,-209.5"/>
</g>
<!-- union_0&#45;&gt;siblings_0 -->
<g id="edge11" class="edge"><title>union_0&#45;&gt;siblings_0</title>
<path fill="none" stroke="#1abc9c" d="M224.083,-209C230.913,-209 245.732,-209 252.715,-209"/>
</g>
<!-- Peshel Serling -->
<g id="node11" class="node"><title>Peshel Serling</title>
<polygon fill="white" stroke="#cccccc" points="188,-230 8,-230 8,-188 188,-188 188,-230"/>
<text text-anchor="start" x="52.8801" y="-211.4" font-family="Helvetica, Arial, sans-serif" font-size="14.00">Peshel Serling</text>
<text text-anchor="start" x="65.7715" y="-197" font-family="Helvetica, Arial, sans-serif" font-size="10.00" fill="#aaaaaa">Peshel Serling</text>
</g>
<!-- Peshel Serling&#45;&gt;union_0 -->
<g id="edge9" class="edge"><title>Peshel Serling&#45;&gt;union_0</title>
<path fill="none" stroke="#1abc9c" d="M188.315,-209C200.938,-209 211.417,-209 216.733,-209"/>
</g>
<!-- Ariel Serling -->
<g id="node12" class="node"><title>Ariel Serling</title>
<polygon fill="white" stroke="#cccccc" points="188,-170 8,-170 8,-128 188,-128 188,-170"/>
<text text-anchor="start" x="60.7791" y="-151.4" font-family="Helvetica, Arial, sans-serif" font-size="14.00">Ariel Serling</text>
<text text-anchor="start" x="71.5565" y="-137" font-family="Helvetica, Arial, sans-serif" font-size="10.00" fill="#aaaaaa">Ariel Serling</text>
</g>
<!-- Ariel Serling&#45;&gt;union_0 -->
<g id="edge10" class="edge"><title>Ariel Serling&#45;&gt;union_0</title>
<path fill="none" stroke="#1abc9c" d="M188.038,-149C206.794,-149 221,-149 221,-149 221,-149 221,-192.51 221,-205.426"/>
</g>
<!-- siblings_0&#45;&gt;Bailey Serling -->
<g id="edge12" class="edge"><title>siblings_0&#45;&gt;Bailey Serling</title>
<path fill="none" stroke="#1abc9c" d="M260.034,-209C260.034,-209 278.811,-209 278.811,-209"/>
<polygon fill="#1abc9c" stroke="#1abc9c" points="286.81,-199 286.811,-219 282.811,-219 282.81,-199 286.81,-199"/>
<polyline fill="none" stroke="#1abc9c" points="288.811,-209 278.811,-209 "/>
</g>
<!-- union_1_0 -->
<g id="node14" class="node"><title>union_1_0</title>
<ellipse fill="#34495e" stroke="white" cx="501.5" cy="-89" rx="3.5" ry="3.5"/>
</g>
<!-- siblings_1_0 -->
<g id="node17" class="node"><title>siblings_1_0</title>
<polygon fill="#34495e" stroke="#cccccc" stroke-width="0" points="541,-89.5 534,-89.5 534,-88.5 541,-88.5 541,-89.5"/>
</g>
<!-- union_1_0&#45;&gt;siblings_1_0 -->
<g id="edge15" class="edge"><title>union_1_0&#45;&gt;siblings_1_0</title>
<path fill="none" stroke="#34495e" d="M505.083,-89C511.913,-89 526.732,-89 533.715,-89"/>
</g>
<!-- Joseph Philipson -->
<g id="node15" class="node"><title>Joseph Philipson</title>
<polygon fill="white" stroke="#cccccc" points="469,-110 289,-110 289,-68 469,-68 469,-110"/>
<text text-anchor="start" x="326.596" y="-91.4" font-family="Helvetica, Arial, sans-serif" font-size="14.00">Joseph Philipson</text>
<text text-anchor="start" x="341.712" y="-77" font-family="Helvetica, Arial, sans-serif" font-size="10.00" fill="#aaaaaa">Joseph Philipson</text>
</g>
<!-- Joseph Philipson&#45;&gt;union_1_0 -->
<g id="edge13" class="edge"><title>Joseph Philipson&#45;&gt;union_1_0</title>
<path fill="none" stroke="#34495e" d="M469.315,-89C481.938,-89 492.417,-89 497.733,-89"/>
</g>
<!-- Katie Stabinsky -->
<g id="node16" class="node"><title>Katie Stabinsky</title>
<polygon fill="white" stroke="#cccccc" points="469,-50 289,-50 289,-8 469,-8 469,-50"/>
<text text-anchor="start" x="330.764" y="-31.4" font-family="Helvetica, Arial, sans-serif" font-size="14.00">Katie Stabinsky</text>
<text text-anchor="start" x="322.875" y="-17" font-family="Helvetica, Arial, sans-serif" font-size="10.00" fill="#aaaaaa">Katie Stabinsky Philipson</text>
</g>
<!-- Katie Stabinsky&#45;&gt;union_1_0 -->
<g id="edge14" class="edge"><title>Katie Stabinsky&#45;&gt;union_1_0</title>
<path fill="none" stroke="#34495e" d="M469.038,-29C487.794,-29 502,-29 502,-29 502,-29 502,-72.5095 502,-85.4264"/>
</g>
<!-- siblings_1_0&#45;&gt;Louis Philipson -->
<g id="edge16" class="edge"><title>siblings_1_0&#45;&gt;Louis Philipson</title>
<path fill="none" stroke="#34495e" d="M538,-89.7524C538,-97.1133 538,-156 538,-156 538,-156 559.736,-156 559.736,-156"/>
<polygon fill="#34495e" stroke="#34495e" points="567.735,-146 567.736,-166 563.736,-166 563.735,-146 567.735,-146"/>
<polyline fill="none" stroke="#34495e" points="569.736,-156 559.736,-156 "/>
</g>
<!-- union_1 -->
<g id="node18" class="node"><title>union_1</title>
<ellipse fill="#9b59b6" stroke="white" cx="220.5" cy="-89" rx="3.5" ry="3.5"/>
</g>
<!-- siblings_1 -->
<g id="node21" class="node"><title>siblings_1</title>
<polygon fill="#9b59b6" stroke="#cccccc" stroke-width="0" points="260,-89.5 253,-89.5 253,-88.5 260,-88.5 260,-89.5"/>
</g>
<!-- union_1&#45;&gt;siblings_1 -->
<g id="edge19" class="edge"><title>union_1&#45;&gt;siblings_1</title>
<path fill="none" stroke="#9b59b6" d="M224.083,-89C230.913,-89 245.732,-89 252.715,-89"/>
</g>
<!-- Lena -->
<g id="node19" class="node"><title>Lena</title>
<polygon fill="white" stroke="#cccccc" points="188,-110 8,-110 8,-68 188,-68 188,-110"/>
<text text-anchor="start" x="82.9348" y="-91.4" font-family="Helvetica, Arial, sans-serif" font-size="14.00">Lena</text>
<text text-anchor="start" x="74.8745" y="-77" font-family="Helvetica, Arial, sans-serif" font-size="10.00" fill="#aaaaaa">Lena ????</text>
</g>
<!-- Lena&#45;&gt;union_1 -->
<g id="edge17" class="edge"><title>Lena&#45;&gt;union_1</title>
<path fill="none" stroke="#9b59b6" d="M188.315,-89C200.938,-89 211.417,-89 216.733,-89"/>
</g>
<!-- Barnett Philipson -->
<g id="node20" class="node"><title>Barnett Philipson</title>
<polygon fill="white" stroke="#cccccc" points="188,-50 8,-50 8,-8 188,-8 188,-50"/>
<text text-anchor="start" x="45.5982" y="-31.4" font-family="Helvetica, Arial, sans-serif" font-size="14.00">Barnett Philipson</text>
<text text-anchor="start" x="60.713" y="-17" font-family="Helvetica, Arial, sans-serif" font-size="10.00" fill="#aaaaaa">Barnett Philipson</text>
</g>
<!-- Barnett Philipson&#45;&gt;union_1 -->
<g id="edge18" class="edge"><title>Barnett Philipson&#45;&gt;union_1</title>
<path fill="none" stroke="#9b59b6" d="M188.038,-29C206.794,-29 221,-29 221,-29 221,-29 221,-72.5095 221,-85.4264"/>
</g>
<!-- siblings_1&#45;&gt;Joseph Philipson -->
<g id="edge20" class="edge"><title>siblings_1&#45;&gt;Joseph Philipson</title>
<path fill="none" stroke="#9b59b6" d="M260.034,-89C260.034,-89 278.811,-89 278.811,-89"/>
<polygon fill="#9b59b6" stroke="#9b59b6" points="286.81,-79 286.811,-99 282.811,-99.0001 282.81,-79.0001 286.81,-79"/>
<polyline fill="none" stroke="#9b59b6" points="288.811,-89 278.811,-89.0001 "/>
</g>
<!-- siblings_2_0_0 -->
<g id="node24" class="node"><title>siblings_2_0_0</title>
<polygon fill="#e74c3c" stroke="#cccccc" stroke-width="0" points="1103,-413.5 1096,-413.5 1096,-412.5 1103,-412.5 1103,-413.5"/>
</g>
<!-- union_2_0_0&#45;&gt;siblings_2_0_0 -->
<g id="edge23" class="edge"><title>union_2_0_0&#45;&gt;siblings_2_0_0</title>
<path fill="none" stroke="#e74c3c" d="M1067.08,-413C1073.91,-413 1088.73,-413 1095.72,-413"/>
</g>
<!-- Aviva Zuta -->
<g id="node23" class="node"><title>Aviva Zuta</title>
<polygon fill="white" stroke="#cccccc" points="1031,-434 851,-434 851,-392 1031,-392 1031,-434"/>
<text text-anchor="start" x="907.938" y="-415.4" font-family="Helvetica, Arial, sans-serif" font-size="14.00">Aviva Zuta</text>
<text text-anchor="start" x="895.713" y="-401" font-family="Helvetica, Arial, sans-serif" font-size="10.00" fill="#aaaaaa">Aviva Zuta Philipson</text>
</g>
<!-- Aviva Zuta&#45;&gt;union_2_0_0 -->
<g id="edge22" class="edge"><title>Aviva Zuta&#45;&gt;union_2_0_0</title>
<path fill="none" stroke="#e74c3c" d="M1031.31,-413C1043.94,-413 1054.42,-413 1059.73,-413"/>
</g>
<!-- Gary Philipson -->
<g id="node25" class="node"><title>Gary Philipson</title>
<polygon fill="white" stroke="#cccccc" points="1312,-434 1132,-434 1132,-392 1312,-392 1312,-434"/>
<text text-anchor="start" x="1176.99" y="-415.4" font-family="Helvetica, Arial, sans-serif" font-size="14.00">Gary Philipson</text>
<text text-anchor="start" x="1180.27" y="-401" font-family="Helvetica, Arial, sans-serif" font-size="10.00" fill="#aaaaaa">Gary Lee Philipson</text>
</g>
<!-- siblings_2_0_0&#45;&gt;Gary Philipson -->
<g id="edge24" class="edge"><title>siblings_2_0_0&#45;&gt;Gary Philipson</title>
<path fill="none" stroke="#e74c3c" d="M1103.03,-413C1103.03,-413 1121.81,-413 1121.81,-413"/>
<polygon fill="#e74c3c" stroke="#e74c3c" points="1129.81,-403 1129.81,-423 1125.81,-423 1125.81,-403 1129.81,-403"/>
<polyline fill="none" stroke="#e74c3c" points="1131.81,-413 1121.81,-413 "/>
</g>
<!-- union_8 -->
<g id="node67" class="node"><title>union_8</title>
<ellipse fill="#1abc9c" stroke="white" cx="1344.5" cy="-638" rx="3.5" ry="3.5"/>
</g>
<!-- Gary Philipson&#45;&gt;union_8 -->
<g id="edge65" class="edge"><title>Gary Philipson&#45;&gt;union_8</title>
<path fill="none" stroke="#1abc9c" d="M1312.04,-413C1330.79,-413 1345,-413 1345,-413 1345,-413 1345,-605.841 1345,-634.466"/>
</g>
<!-- union_2_0 -->
<g id="node26" class="node"><title>union_2_0</title>
<ellipse fill="#e67e22" stroke="white" cx="782.5" cy="-413" rx="3.5" ry="3.5"/>
</g>
<!-- siblings_2_0 -->
<g id="node29" class="node"><title>siblings_2_0</title>
<polygon fill="#e67e22" stroke="#cccccc" stroke-width="0" points="822,-413.5 815,-413.5 815,-412.5 822,-412.5 822,-413.5"/>
</g>
<!-- union_2_0&#45;&gt;siblings_2_0 -->
<g id="edge27" class="edge"><title>union_2_0&#45;&gt;siblings_2_0</title>
<path fill="none" stroke="#e67e22" d="M786.083,-413C792.913,-413 807.732,-413 814.715,-413"/>
</g>
<!-- Hadassah Rabinowitz -->
<g id="node27" class="node"><title>Hadassah Rabinowitz</title>
<polygon fill="white" stroke="#cccccc" points="750,-464 570,-464 570,-422 750,-422 750,-464"/>
<text text-anchor="start" x="592.821" y="-445.4" font-family="Helvetica, Arial, sans-serif" font-size="14.00">Hadassah Rabinowitz</text>
<text text-anchor="start" x="612.158" y="-431" font-family="Helvetica, Arial, sans-serif" font-size="10.00" fill="#aaaaaa">Hadassah Rabinowitz</text>
</g>
<!-- Hadassah Rabinowitz&#45;&gt;union_2_0 -->
<g id="edge25" class="edge"><title>Hadassah Rabinowitz&#45;&gt;union_2_0</title>
<path fill="none" stroke="#e67e22" d="M750.116,-428C769.348,-428 784,-428 784,-428 784,-428 784,-420.584 784,-416.181"/>
</g>
<!-- Eliyahu Zuta -->
<g id="node28" class="node"><title>Eliyahu Zuta</title>
<polygon fill="white" stroke="#cccccc" points="750,-404 570,-404 570,-362 750,-362 750,-404"/>
<text text-anchor="start" x="621.602" y="-385.4" font-family="Helvetica, Arial, sans-serif" font-size="14.00">Eliyahu Zuta</text>
<text text-anchor="start" x="632.716" y="-371" font-family="Helvetica, Arial, sans-serif" font-size="10.00" fill="#aaaaaa">Eliyahu Zuta</text>
</g>
<!-- Eliyahu Zuta&#45;&gt;union_2_0 -->
<g id="edge26" class="edge"><title>Eliyahu Zuta&#45;&gt;union_2_0</title>
<path fill="none" stroke="#e67e22" d="M750.038,-398C768.794,-398 783,-398 783,-398 783,-398 783,-405.09 783,-409.521"/>
</g>
<!-- siblings_2_0&#45;&gt;Aviva Zuta -->
<g id="edge28" class="edge"><title>siblings_2_0&#45;&gt;Aviva Zuta</title>
<path fill="none" stroke="#e67e22" d="M822.034,-413C822.034,-413 840.811,-413 840.811,-413"/>
<polygon fill="#e67e22" stroke="#e67e22" points="848.81,-403 848.811,-423 844.811,-423 844.81,-403 848.81,-403"/>
<polyline fill="none" stroke="#e67e22" points="850.811,-413 840.811,-413 "/>
</g>
<!-- union_2 -->
<g id="node30" class="node"><title>union_2</title>
<ellipse fill="#f1c40f" stroke="white" cx="501.5" cy="-443" rx="3.5" ry="3.5"/>
</g>
<!-- siblings_2 -->
<g id="node33" class="node"><title>siblings_2</title>
<polygon fill="#f1c40f" stroke="#cccccc" stroke-width="0" points="541,-443.5 534,-443.5 534,-442.5 541,-442.5 541,-443.5"/>
</g>
<!-- union_2&#45;&gt;siblings_2 -->
<g id="edge31" class="edge"><title>union_2&#45;&gt;siblings_2</title>
<path fill="none" stroke="#f1c40f" d="M505.083,-443C511.913,-443 526.732,-443 533.715,-443"/>
</g>
<!-- Nachama Schecter -->
<g id="node31" class="node"><title>Nachama Schecter</title>
<polygon fill="white" stroke="#cccccc" points="469,-464 289,-464 289,-422 469,-422 469,-464"/>
<text text-anchor="start" x="319.988" y="-445.4" font-family="Helvetica, Arial, sans-serif" font-size="14.00">Nachama Schecter</text>
<text text-anchor="start" x="336.991" y="-431" font-family="Helvetica, Arial, sans-serif" font-size="10.00" fill="#aaaaaa">Nachama Schecter</text>
</g>
<!-- Nachama Schecter&#45;&gt;union_2 -->
<g id="edge29" class="edge"><title>Nachama Schecter&#45;&gt;union_2</title>
<path fill="none" stroke="#f1c40f" d="M469.315,-443C481.938,-443 492.417,-443 497.733,-443"/>
</g>
<!-- Meyer Rabinowitz -->
<g id="node32" class="node"><title>Meyer Rabinowitz</title>
<polygon fill="white" stroke="#cccccc" points="469,-404 289,-404 289,-362 469,-362 469,-404"/>
<text text-anchor="start" x="323.888" y="-385.4" font-family="Helvetica, Arial, sans-serif" font-size="14.00">Meyer Rabinowitz</text>
<text text-anchor="start" x="339.777" y="-371" font-family="Helvetica, Arial, sans-serif" font-size="10.00" fill="#aaaaaa">Meyer Rabinowitz</text>
</g>
<!-- Meyer Rabinowitz&#45;&gt;union_2 -->
<g id="edge30" class="edge"><title>Meyer Rabinowitz&#45;&gt;union_2</title>
<path fill="none" stroke="#f1c40f" d="M469.038,-376C487.794,-376 502,-376 502,-376 502,-376 502,-425.481 502,-439.398"/>
</g>
<!-- siblings_2&#45;&gt;Hadassah Rabinowitz -->
<g id="edge32" class="edge"><title>siblings_2&#45;&gt;Hadassah Rabinowitz</title>
<path fill="none" stroke="#f1c40f" d="M541.034,-443C541.034,-443 559.811,-443 559.811,-443"/>
<polygon fill="#f1c40f" stroke="#f1c40f" points="567.81,-433 567.811,-453 563.811,-453 563.81,-433 567.81,-433"/>
<polyline fill="none" stroke="#f1c40f" points="569.811,-443 559.811,-443 "/>
</g>
<!-- union_3 -->
<g id="node34" class="node"><title>union_3</title>
<ellipse fill="#1abc9c" stroke="white" cx="501.5" cy="-323" rx="3.5" ry="3.5"/>
</g>
<!-- siblings_3 -->
<g id="node37" class="node"><title>siblings_3</title>
<polygon fill="#1abc9c" stroke="#cccccc" stroke-width="0" points="541,-323.5 534,-323.5 534,-322.5 541,-322.5 541,-323.5"/>
</g>
<!-- union_3&#45;&gt;siblings_3 -->
<g id="edge35" class="edge"><title>union_3&#45;&gt;siblings_3</title>
<path fill="none" stroke="#1abc9c" d="M505.083,-323C511.913,-323 526.732,-323 533.715,-323"/>
</g>
<!-- Aryen Zuta -->
<g id="node35" class="node"><title>Aryen Zuta</title>
<polygon fill="white" stroke="#cccccc" points="469,-344 289,-344 289,-302 469,-302 469,-344"/>
<text text-anchor="start" x="344.769" y="-325.4" font-family="Helvetica, Arial, sans-serif" font-size="14.00">Aryen Zuta</text>
<text text-anchor="start" x="354.55" y="-311" font-family="Helvetica, Arial, sans-serif" font-size="10.00" fill="#aaaaaa">Aryen Zuta</text>
</g>
<!-- Aryen Zuta&#45;&gt;union_3 -->
<g id="edge33" class="edge"><title>Aryen Zuta&#45;&gt;union_3</title>
<path fill="none" stroke="#1abc9c" d="M469.315,-323C481.938,-323 492.417,-323 497.733,-323"/>
</g>
<g id="node36" class="node"><title></title>
<polygon fill="white" stroke="#cccccc" points="469,-284 289,-284 289,-248 469,-248 469,-284"/>
</g>
<!-- &#45;&gt;union_3 -->
<g id="edge34" class="edge"><title>&#45;&gt;union_3</title>
<path fill="none" stroke="#1abc9c" d="M469.038,-266C487.794,-266 502,-266 502,-266 502,-266 502,-306.579 502,-319.26"/>
</g>
<!-- siblings_3&#45;&gt;Eliyahu Zuta -->
<g id="edge36" class="edge"><title>siblings_3&#45;&gt;Eliyahu Zuta</title>
<path fill="none" stroke="#1abc9c" d="M538,-323.752C538,-331.113 538,-390 538,-390 538,-390 559.736,-390 559.736,-390"/>
<polygon fill="#1abc9c" stroke="#1abc9c" points="567.735,-380 567.736,-400 563.736,-400 563.735,-380 567.735,-380"/>
<polyline fill="none" stroke="#1abc9c" points="569.736,-390 559.736,-390 "/>
</g>
<!-- union_4_0_0 -->
<g id="node38" class="node"><title>union_4_0_0</title>
<ellipse fill="#9b59b6" stroke="white" cx="1063.5" cy="-863" rx="3.5" ry="3.5"/>
</g>
<!-- siblings_4_0_0 -->
<g id="node41" class="node"><title>siblings_4_0_0</title>
<polygon fill="#9b59b6" stroke="#cccccc" stroke-width="0" points="1103,-863.5 1096,-863.5 1096,-862.5 1103,-862.5 1103,-863.5"/>
</g>
<!-- union_4_0_0&#45;&gt;siblings_4_0_0 -->
<g id="edge39" class="edge"><title>union_4_0_0&#45;&gt;siblings_4_0_0</title>
<path fill="none" stroke="#9b59b6" d="M1067.08,-863C1073.91,-863 1088.73,-863 1095.72,-863"/>
</g>
<!-- Richard Behren -->
<g id="node39" class="node"><title>Richard Behren</title>
<polygon fill="white" stroke="#cccccc" points="1031,-944 851,-944 851,-902 1031,-902 1031,-944"/>
<text text-anchor="start" x="892.88" y="-925.4" font-family="Helvetica, Arial, sans-serif" font-size="14.00">Richard Behren</text>
<text text-anchor="start" x="906.771" y="-911" font-family="Helvetica, Arial, sans-serif" font-size="10.00" fill="#aaaaaa">Richard Behren</text>
</g>
<!-- Richard Behren&#45;&gt;union_4_0_0 -->
<g id="edge37" class="edge"><title>Richard Behren&#45;&gt;union_4_0_0</title>
<path fill="none" stroke="#9b59b6" d="M1031.04,-923C1049.79,-923 1064,-923 1064,-923 1064,-923 1064,-879.49 1064,-866.574"/>
</g>
<!-- Leta Goldstrom -->
<g id="node40" class="node"><title>Leta Goldstrom</title>
<polygon fill="white" stroke="#cccccc" points="1031,-884 851,-884 851,-842 1031,-842 1031,-884"/>
<text text-anchor="start" x="893.657" y="-865.4" font-family="Helvetica, Arial, sans-serif" font-size="14.00">Leta Goldstrom</text>
<text text-anchor="start" x="889.82" y="-851" font-family="Helvetica, Arial, sans-serif" font-size="10.00" fill="#aaaaaa">Leta Goldstrom Behren</text>
</g>
<!-- Leta Goldstrom&#45;&gt;union_4_0_0 -->
<g id="edge38" class="edge"><title>Leta Goldstrom&#45;&gt;union_4_0_0</title>
<path fill="none" stroke="#9b59b6" d="M1031.31,-863C1043.94,-863 1054.42,-863 1059.73,-863"/>
</g>
<!-- Lisa Behren -->
<g id="node42" class="node"><title>Lisa Behren</title>
<polygon fill="white" stroke="#cccccc" points="1312,-884 1132,-884 1132,-842 1312,-842 1312,-884"/>
<text text-anchor="start" x="1184.65" y="-865.4" font-family="Helvetica, Arial, sans-serif" font-size="14.00">Lisa Behren</text>
<text text-anchor="start" x="1173.65" y="-851" font-family="Helvetica, Arial, sans-serif" font-size="10.00" fill="#aaaaaa">Lisa Behren Philipson</text>
</g>
<!-- siblings_4_0_0&#45;&gt;Lisa Behren -->
<g id="edge40" class="edge"><title>siblings_4_0_0&#45;&gt;Lisa Behren</title>
<path fill="none" stroke="#9b59b6" d="M1103.03,-863C1103.03,-863 1121.81,-863 1121.81,-863"/>
<polygon fill="#9b59b6" stroke="#9b59b6" points="1129.81,-853 1129.81,-873 1125.81,-873 1125.81,-853 1129.81,-853"/>
<polyline fill="none" stroke="#9b59b6" points="1131.81,-863 1121.81,-863 "/>
</g>
<!-- Lisa Behren&#45;&gt;union_8 -->
<g id="edge66" class="edge"><title>Lisa Behren&#45;&gt;union_8</title>
<path fill="none" stroke="#1abc9c" d="M1312.04,-863C1330.79,-863 1345,-863 1345,-863 1345,-863 1345,-670.159 1345,-641.534"/>
</g>
<!-- union_4_0 -->
<g id="node43" class="node"><title>union_4_0</title>
<ellipse fill="#3498db" stroke="white" cx="782.5" cy="-923" rx="3.5" ry="3.5"/>
</g>
<!-- siblings_4_0 -->
<g id="node46" class="node"><title>siblings_4_0</title>
<polygon fill="#3498db" stroke="#cccccc" stroke-width="0" points="822,-923.5 815,-923.5 815,-922.5 822,-922.5 822,-923.5"/>
</g>
<!-- union_4_0&#45;&gt;siblings_4_0 -->
<g id="edge43" class="edge"><title>union_4_0&#45;&gt;siblings_4_0</title>
<path fill="none" stroke="#3498db" d="M786.083,-923C792.913,-923 807.732,-923 814.715,-923"/>
</g>
<!-- Rose Richmond -->
<g id="node44" class="node"><title>Rose Richmond</title>
<polygon fill="white" stroke="#cccccc" points="750,-944 570,-944 570,-902 750,-902 750,-944"/>
<text text-anchor="start" x="610.217" y="-925.4" font-family="Helvetica, Arial, sans-serif" font-size="14.00">Rose Richmond</text>
<text text-anchor="start" x="606.934" y="-911" font-family="Helvetica, Arial, sans-serif" font-size="10.00" fill="#aaaaaa">Rose Richmond Behren</text>
</g>
<!-- Rose Richmond&#45;&gt;union_4_0 -->
<g id="edge41" class="edge"><title>Rose Richmond&#45;&gt;union_4_0</title>
<path fill="none" stroke="#3498db" d="M750.315,-923C762.938,-923 773.417,-923 778.733,-923"/>
</g>
<!-- Abraham Behren -->
<g id="node45" class="node"><title>Abraham Behren</title>
<polygon fill="white" stroke="#cccccc" points="750,-884 570,-884 570,-842 750,-842 750,-884"/>
<text text-anchor="start" x="607.097" y="-865.4" font-family="Helvetica, Arial, sans-serif" font-size="14.00">Abraham Behren</text>
<text text-anchor="start" x="606.93" y="-851" font-family="Helvetica, Arial, sans-serif" font-size="10.00" fill="#aaaaaa">Abraham Lester Behren</text>
</g>
<!-- Abraham Behren&#45;&gt;union_4_0 -->
<g id="edge42" class="edge"><title>Abraham Behren&#45;&gt;union_4_0</title>
<path fill="none" stroke="#3498db" d="M750.038,-870C768.794,-870 783,-870 783,-870 783,-870 783,-907.731 783,-919.523"/>
</g>
<!-- siblings_4_0&#45;&gt;Richard Behren -->
<g id="edge44" class="edge"><title>siblings_4_0&#45;&gt;Richard Behren</title>
<path fill="none" stroke="#3498db" d="M822.034,-923C822.034,-923 840.811,-923 840.811,-923"/>
<polygon fill="#3498db" stroke="#3498db" points="848.81,-913 848.811,-933 844.811,-933 844.81,-913 848.81,-913"/>
<polyline fill="none" stroke="#3498db" points="850.811,-923 840.811,-923 "/>
</g>
<!-- union_4 -->
<g id="node47" class="node"><title>union_4</title>
<ellipse fill="#2ecc71" stroke="white" cx="501.5" cy="-923" rx="3.5" ry="3.5"/>
</g>
<!-- siblings_4 -->
<g id="node50" class="node"><title>siblings_4</title>
<polygon fill="#2ecc71" stroke="#cccccc" stroke-width="0" points="541,-923.5 534,-923.5 534,-922.5 541,-922.5 541,-923.5"/>
</g>
<!-- union_4&#45;&gt;siblings_4 -->
<g id="edge47" class="edge"><title>union_4&#45;&gt;siblings_4</title>
<path fill="none" stroke="#2ecc71" d="M505.083,-923C511.913,-923 526.732,-923 533.715,-923"/>
</g>
<!-- Eva Richmond -->
<g id="node48" class="node"><title>Eva Richmond</title>
<polygon fill="white" stroke="#cccccc" points="469,-944 289,-944 289,-902 469,-902 469,-944"/>
<text text-anchor="start" x="333.993" y="-925.4" font-family="Helvetica, Arial, sans-serif" font-size="14.00">Eva Richmond</text>
<text text-anchor="start" x="346.995" y="-911" font-family="Helvetica, Arial, sans-serif" font-size="10.00" fill="#aaaaaa">Eva Richmond</text>
</g>
<!-- Eva Richmond&#45;&gt;union_4 -->
<g id="edge45" class="edge"><title>Eva Richmond&#45;&gt;union_4</title>
<path fill="none" stroke="#2ecc71" d="M469.315,-923C481.938,-923 492.417,-923 497.733,-923"/>
</g>
<!-- Jacob Richmond -->
<g id="node49" class="node"><title>Jacob Richmond</title>
<polygon fill="white" stroke="#cccccc" points="469,-884 289,-884 289,-842 469,-842 469,-884"/>
<text text-anchor="start" x="326.879" y="-865.4" font-family="Helvetica, Arial, sans-serif" font-size="14.00">Jacob Richmond</text>
<text text-anchor="start" x="341.77" y="-851" font-family="Helvetica, Arial, sans-serif" font-size="10.00" fill="#aaaaaa">Jacob Richmond</text>
</g>
<!-- Jacob Richmond&#45;&gt;union_4 -->
<g id="edge46" class="edge"><title>Jacob Richmond&#45;&gt;union_4</title>
<path fill="none" stroke="#2ecc71" d="M469.038,-856C487.794,-856 502,-856 502,-856 502,-856 502,-905.481 502,-919.398"/>
</g>
<!-- siblings_4&#45;&gt;Rose Richmond -->
<g id="edge48" class="edge"><title>siblings_4&#45;&gt;Rose Richmond</title>
<path fill="none" stroke="#2ecc71" d="M541.034,-923C541.034,-923 559.811,-923 559.811,-923"/>
<polygon fill="#2ecc71" stroke="#2ecc71" points="567.81,-913 567.811,-933 563.811,-933 563.81,-913 567.81,-913"/>
<polyline fill="none" stroke="#2ecc71" points="569.811,-923 559.811,-923 "/>
</g>
<!-- union_5 -->
<g id="node51" class="node"><title>union_5</title>
<ellipse fill="#34495e" stroke="white" cx="501.5" cy="-803" rx="3.5" ry="3.5"/>
</g>
<!-- siblings_5 -->
<g id="node54" class="node"><title>siblings_5</title>
<polygon fill="#34495e" stroke="#cccccc" stroke-width="0" points="541,-803.5 534,-803.5 534,-802.5 541,-802.5 541,-803.5"/>
</g>
<!-- union_5&#45;&gt;siblings_5 -->
<g id="edge51" class="edge"><title>union_5&#45;&gt;siblings_5</title>
<path fill="none" stroke="#34495e" d="M505.083,-803C511.913,-803 526.732,-803 533.715,-803"/>
</g>
<!-- Pauline -->
<g id="node52" class="node"><title>Pauline</title>
<polygon fill="white" stroke="#cccccc" points="469,-824 289,-824 289,-782 469,-782 469,-824"/>
<text text-anchor="start" x="355.66" y="-805.4" font-family="Helvetica, Arial, sans-serif" font-size="14.00">Pauline</text>
<text text-anchor="start" x="352.601" y="-791" font-family="Helvetica, Arial, sans-serif" font-size="10.00" fill="#aaaaaa">Pauline ???</text>
</g>
<!-- Pauline&#45;&gt;union_5 -->
<g id="edge49" class="edge"><title>Pauline&#45;&gt;union_5</title>
<path fill="none" stroke="#34495e" d="M469.315,-803C481.938,-803 492.417,-803 497.733,-803"/>
</g>
<!-- Louis Behren -->
<g id="node53" class="node"><title>Louis Behren</title>
<polygon fill="white" stroke="#cccccc" points="469,-764 289,-764 289,-722 469,-722 469,-764"/>
<text text-anchor="start" x="337.764" y="-745.4" font-family="Helvetica, Arial, sans-serif" font-size="14.00">Louis Behren</text>
<text text-anchor="start" x="343.157" y="-731" font-family="Helvetica, Arial, sans-serif" font-size="10.00" fill="#aaaaaa">Louis D. Behren</text>
</g>
<!-- Louis Behren&#45;&gt;union_5 -->
<g id="edge50" class="edge"><title>Louis Behren&#45;&gt;union_5</title>
<path fill="none" stroke="#34495e" d="M469.038,-743C487.794,-743 502,-743 502,-743 502,-743 502,-786.51 502,-799.426"/>
</g>
<!-- siblings_5&#45;&gt;Abraham Behren -->
<g id="edge52" class="edge"><title>siblings_5&#45;&gt;Abraham Behren</title>
<path fill="none" stroke="#34495e" d="M538,-803.752C538,-811.113 538,-870 538,-870 538,-870 559.736,-870 559.736,-870"/>
<polygon fill="#34495e" stroke="#34495e" points="567.735,-860 567.736,-880 563.736,-880 563.735,-860 567.735,-860"/>
<polyline fill="none" stroke="#34495e" points="569.736,-870 559.736,-870 "/>
</g>
<!-- union_6_0 -->
<g id="node55" class="node"><title>union_6_0</title>
<ellipse fill="#e67e22" stroke="white" cx="782.5" cy="-683" rx="3.5" ry="3.5"/>
</g>
<!-- siblings_6_0 -->
<g id="node58" class="node"><title>siblings_6_0</title>
<polygon fill="#e67e22" stroke="#cccccc" stroke-width="0" points="822,-683.5 815,-683.5 815,-682.5 822,-682.5 822,-683.5"/>
</g>
<!-- union_6_0&#45;&gt;siblings_6_0 -->
<g id="edge55" class="edge"><title>union_6_0&#45;&gt;siblings_6_0</title>
<path fill="none" stroke="#e67e22" d="M786.083,-683C792.913,-683 807.732,-683 814.715,-683"/>
</g>
<!-- Ruth Williamson -->
<g id="node56" class="node"><title>Ruth Williamson</title>
<polygon fill="white" stroke="#cccccc" points="750,-704 570,-704 570,-662 750,-662 750,-704"/>
<text text-anchor="start" x="609.949" y="-685.4" font-family="Helvetica, Arial, sans-serif" font-size="14.00">Ruth Williamson</text>
<text text-anchor="start" x="599.947" y="-671" font-family="Helvetica, Arial, sans-serif" font-size="10.00" fill="#aaaaaa">Ruth Williamson Goldstrom</text>
</g>
<!-- Ruth Williamson&#45;&gt;union_6_0 -->
<g id="edge53" class="edge"><title>Ruth Williamson&#45;&gt;union_6_0</title>
<path fill="none" stroke="#e67e22" d="M750.315,-683C762.938,-683 773.417,-683 778.733,-683"/>
</g>
<!-- Melvin Goldstrom -->
<g id="node57" class="node"><title>Melvin Goldstrom</title>
<polygon fill="white" stroke="#cccccc" points="750,-644 570,-644 570,-602 750,-602 750,-644"/>
<text text-anchor="start" x="605.557" y="-625.4" font-family="Helvetica, Arial, sans-serif" font-size="14.00">Melvin Goldstrom</text>
<text text-anchor="start" x="621.112" y="-611" font-family="Helvetica, Arial, sans-serif" font-size="10.00" fill="#aaaaaa">Melvin Goldstrom</text>
</g>
<!-- Melvin Goldstrom&#45;&gt;union_6_0 -->
<g id="edge54" class="edge"><title>Melvin Goldstrom&#45;&gt;union_6_0</title>
<path fill="none" stroke="#e67e22" d="M750.264,-638C768.391,-638 782,-638 782,-638 782,-638 782,-668.861 782,-679.469"/>
</g>
<!-- siblings_6_0&#45;&gt;Leta Goldstrom -->
<g id="edge56" class="edge"><title>siblings_6_0&#45;&gt;Leta Goldstrom</title>
<path fill="none" stroke="#e67e22" d="M819,-683.771C819,-696.252 819,-856 819,-856 819,-856 840.736,-856 840.736,-856"/>
<polygon fill="#e67e22" stroke="#e67e22" points="848.735,-846 848.736,-866 844.736,-866 844.735,-846 848.735,-846"/>
<polyline fill="none" stroke="#e67e22" points="850.736,-856 840.736,-856 "/>
</g>
<!-- union_6 -->
<g id="node59" class="node"><title>union_6</title>
<ellipse fill="#f1c40f" stroke="white" cx="501.5" cy="-683" rx="3.5" ry="3.5"/>
</g>
<!-- siblings_6 -->
<g id="node62" class="node"><title>siblings_6</title>
<polygon fill="#f1c40f" stroke="#cccccc" stroke-width="0" points="541,-683.5 534,-683.5 534,-682.5 541,-682.5 541,-683.5"/>
</g>
<!-- union_6&#45;&gt;siblings_6 -->
<g id="edge59" class="edge"><title>union_6&#45;&gt;siblings_6</title>
<path fill="none" stroke="#f1c40f" d="M505.083,-683C511.913,-683 526.732,-683 533.715,-683"/>
</g>
<!-- Lena Williamson -->
<g id="node60" class="node"><title>Lena Williamson</title>
<polygon fill="white" stroke="#cccccc" points="469,-704 289,-704 289,-662 469,-662 469,-704"/>
<text text-anchor="start" x="327.665" y="-685.4" font-family="Helvetica, Arial, sans-serif" font-size="14.00">Lena Williamson</text>
<text text-anchor="start" x="342.332" y="-671" font-family="Helvetica, Arial, sans-serif" font-size="10.00" fill="#aaaaaa">Lena Williamson</text>
</g>
<!-- Lena Williamson&#45;&gt;union_6 -->
<g id="edge57" class="edge"><title>Lena Williamson&#45;&gt;union_6</title>
<path fill="none" stroke="#f1c40f" d="M469.315,-683C481.938,-683 492.417,-683 497.733,-683"/>
</g>
<!-- Morris Williamson -->
<g id="node61" class="node"><title>Morris Williamson</title>
<polygon fill="white" stroke="#cccccc" points="469,-644 289,-644 289,-602 469,-602 469,-644"/>
<text text-anchor="start" x="323.794" y="-625.4" font-family="Helvetica, Arial, sans-serif" font-size="14.00">Morris Williamson</text>
<text text-anchor="start" x="339.567" y="-611" font-family="Helvetica, Arial, sans-serif" font-size="10.00" fill="#aaaaaa">Morris Williamson</text>
</g>
<!-- Morris Williamson&#45;&gt;union_6 -->
<g id="edge58" class="edge"><title>Morris Williamson&#45;&gt;union_6</title>
<path fill="none" stroke="#f1c40f" d="M469.038,-630C487.794,-630 502,-630 502,-630 502,-630 502,-667.731 502,-679.523"/>
</g>
<!-- siblings_6&#45;&gt;Ruth Williamson -->
<g id="edge60" class="edge"><title>siblings_6&#45;&gt;Ruth Williamson</title>
<path fill="none" stroke="#f1c40f" d="M541.034,-683C541.034,-683 559.811,-683 559.811,-683"/>
<polygon fill="#f1c40f" stroke="#f1c40f" points="567.81,-673 567.811,-693 563.811,-693 563.81,-673 567.81,-673"/>
<polyline fill="none" stroke="#f1c40f" points="569.811,-683 559.811,-683 "/>
</g>
<!-- union_7 -->
<g id="node63" class="node"><title>union_7</title>
<ellipse fill="#e74c3c" stroke="white" cx="501.5" cy="-563" rx="3.5" ry="3.5"/>
</g>
<!-- siblings_7 -->
<g id="node66" class="node"><title>siblings_7</title>
<polygon fill="#e74c3c" stroke="#cccccc" stroke-width="0" points="541,-563.5 534,-563.5 534,-562.5 541,-562.5 541,-563.5"/>
</g>
<!-- union_7&#45;&gt;siblings_7 -->
<g id="edge63" class="edge"><title>union_7&#45;&gt;siblings_7</title>
<path fill="none" stroke="#e74c3c" d="M505.083,-563C511.913,-563 526.732,-563 533.715,-563"/>
</g>
<!-- Claire Goldstrom -->
<g id="node64" class="node"><title>Claire Goldstrom</title>
<polygon fill="white" stroke="#cccccc" points="469,-584 289,-584 289,-542 469,-542 469,-584"/>
<text text-anchor="start" x="326.504" y="-565.4" font-family="Helvetica, Arial, sans-serif" font-size="14.00">Claire Goldstrom</text>
<text text-anchor="start" x="341.502" y="-551" font-family="Helvetica, Arial, sans-serif" font-size="10.00" fill="#aaaaaa">Claire Goldstrom</text>
</g>
<!-- Claire Goldstrom&#45;&gt;union_7 -->
<g id="edge61" class="edge"><title>Claire Goldstrom&#45;&gt;union_7</title>
<path fill="none" stroke="#e74c3c" d="M469.315,-563C481.938,-563 492.417,-563 497.733,-563"/>
</g>
<!-- Sol Goldstrom -->
<g id="node65" class="node"><title>Sol Goldstrom</title>
<polygon fill="white" stroke="#cccccc" points="469,-524 289,-524 289,-482 469,-482 469,-524"/>
<text text-anchor="start" x="334.663" y="-505.4" font-family="Helvetica, Arial, sans-serif" font-size="14.00">Sol Goldstrom</text>
<text text-anchor="start" x="347.331" y="-491" font-family="Helvetica, Arial, sans-serif" font-size="10.00" fill="#aaaaaa">Sol Goldstrom</text>
</g>
<!-- Sol Goldstrom&#45;&gt;union_7 -->
<g id="edge62" class="edge"><title>Sol Goldstrom&#45;&gt;union_7</title>
<path fill="none" stroke="#e74c3c" d="M469.038,-503C487.794,-503 502,-503 502,-503 502,-503 502,-546.51 502,-559.426"/>
</g>
<!-- siblings_7&#45;&gt;Melvin Goldstrom -->
<g id="edge64" class="edge"><title>siblings_7&#45;&gt;Melvin Goldstrom</title>
<path fill="none" stroke="#e74c3c" d="M538,-563.595C538,-569.418 538,-616 538,-616 538,-616 559.736,-616 559.736,-616"/>
<polygon fill="#e74c3c" stroke="#e74c3c" points="567.735,-606 567.736,-626 563.736,-626 563.735,-606 567.735,-606"/>
<polyline fill="none" stroke="#e74c3c" points="569.736,-616 559.736,-616 "/>
</g>
<!-- siblings_8 -->
<g id="node68" class="node"><title>siblings_8</title>
<polygon fill="#1abc9c" stroke="#cccccc" stroke-width="0" points="1384,-638.5 1377,-638.5 1377,-637.5 1384,-637.5 1384,-638.5"/>
</g>
<!-- union_8&#45;&gt;siblings_8 -->
<g id="edge67" class="edge"><title>union_8&#45;&gt;siblings_8</title>
<path fill="none" stroke="#1abc9c" d="M1348.08,-638C1354.91,-638 1369.73,-638 1376.72,-638"/>
</g>
<!-- Evan Philipson -->
<g id="node69" class="node"><title>Evan Philipson</title>
<polygon fill="white" stroke="#cccccc" points="1593,-599 1413,-599 1413,-557 1593,-557 1593,-599"/>
<text text-anchor="start" x="1456.71" y="-580.4" font-family="Helvetica, Arial, sans-serif" font-size="14.00">Evan Philipson</text>
<text text-anchor="start" x="1469.94" y="-566" font-family="Helvetica, Arial, sans-serif" font-size="10.00" fill="#aaaaaa">Evan Philipson</text>
</g>
<!-- siblings_8&#45;&gt;Evan Philipson -->
<g id="edge68" class="edge"><title>siblings_8&#45;&gt;Evan Philipson</title>
<path fill="none" stroke="#1abc9c" d="M1381,-637.478C1381,-632.369 1381,-591.5 1381,-591.5 1381,-591.5 1402.74,-591.5 1402.74,-591.5"/>
<polygon fill="#1abc9c" stroke="#1abc9c" points="1410.74,-581.5 1410.74,-601.5 1406.74,-601.5 1406.74,-581.5 1410.74,-581.5"/>
<polyline fill="none" stroke="#1abc9c" points="1412.74,-591.5 1402.74,-591.5 "/>
</g>
<!-- Jeremy Philipson -->
<g id="node70" class="node"><title>Jeremy Philipson</title>
<polygon fill="white" stroke="#cccccc" points="1593,-659 1413,-659 1413,-617 1593,-617 1593,-659"/>
<text text-anchor="start" x="1449.72" y="-640.4" font-family="Helvetica, Arial, sans-serif" font-size="14.00">Jeremy Philipson</text>
<text text-anchor="start" x="1464.94" y="-626" font-family="Helvetica, Arial, sans-serif" font-size="10.00" fill="#aaaaaa">Jeremy Philipson</text>
</g>
<!-- siblings_8&#45;&gt;Jeremy Philipson -->
<g id="edge69" class="edge"><title>siblings_8&#45;&gt;Jeremy Philipson</title>
<path fill="none" stroke="#1abc9c" d="M1384.03,-638C1384.03,-638 1402.81,-638 1402.81,-638"/>
<polygon fill="#1abc9c" stroke="#1abc9c" points="1410.81,-628 1410.81,-648 1406.81,-648 1406.81,-628 1410.81,-628"/>
<polyline fill="none" stroke="#1abc9c" points="1412.81,-638 1402.81,-638 "/>
</g>
<!-- Rachel Philipson -->
<g id="node71" class="node"><title>Rachel Philipson</title>
<polygon fill="white" stroke="#cccccc" points="1593,-719 1413,-719 1413,-677 1593,-677 1593,-719"/>
<text text-anchor="start" x="1450.88" y="-700.4" font-family="Helvetica, Arial, sans-serif" font-size="14.00">Rachel Philipson</text>
<text text-anchor="start" x="1465.77" y="-686" font-family="Helvetica, Arial, sans-serif" font-size="10.00" fill="#aaaaaa">Rachel Philipson</text>
</g>
<!-- siblings_8&#45;&gt;Rachel Philipson -->
<g id="edge70" class="edge"><title>siblings_8&#45;&gt;Rachel Philipson</title>
<path fill="none" stroke="#1abc9c" d="M1381,-638.505C1381,-643.449 1381,-683 1381,-683 1381,-683 1402.74,-683 1402.74,-683"/>
<polygon fill="#1abc9c" stroke="#1abc9c" points="1410.74,-673 1410.74,-693 1406.74,-693 1406.74,-673 1410.74,-673"/>
<polyline fill="none" stroke="#1abc9c" points="1412.74,-683 1402.74,-683 "/>
</g>
</g>
</svg>
